<svg xmlns="http://www.w3.org/2000/svg" version="1.1" xmlns:xlink="http://www.w3.org/1999/xlink" xmlns:svgjs="http://svgjs.com/svgjs" width="24" height="24"><svg height="24" viewBox="0 0 24 24" width="24" xmlns="http://www.w3.org/2000/svg" xmlns:xlink="http://www.w3.org/1999/xlink"><defs><path id="SvgjsPath1003" d="m0 0 1 3h10l1-3z"></path><path id="SvgjsPath1002" d="m4.01867032 7h11.80739018c.036409 0 .0723583.0019917.1077471.00587329l2.2737778-6.34664556c.1417629-.39569328.5132399-.65922773.9292445-.65922773h2.8739988c.5458808 0 .9884047.44771525.9884047 1s-.4425239 1-.9884047 1h-2.1809321l-4.0629962 11.3407723c-.1417628.3956932-.5132398.6592277-.9292445.6592277h-9.88404628c-.42543941 0-.80314721-.2754301-.93768296-.6837722l-2.96521388-9.00000003c-.21334092-.64753112.26303974-1.31622777.93768296-1.31622777h8.89564166c.5458808 0 .9884046.44771525.9884046 1s-.4425238 1-.9884046 1h-7.52430349zm.65893642 2 .98840463 3h8.47857793l1.0747935-3zm2.25281214 10c-1.09176161 0-1.97680926-.8954305-1.97680926-2s.88504765-2 1.97680926-2c1.0917616 0 1.97680925.8954305 1.97680925 2s-.88504765 2-1.97680925 2zm6.91883242 0c-1.0917616 0-1.9768093-.8954305-1.9768093-2s.8850477-2 1.9768093-2 1.9768092.8954305 1.9768092 2-.8850476 2-1.9768092 2z"></path><mask id="SvgjsMask1001" fill="#fff"><use fill="#fff" fill-rule="evenodd" xlink:href="#a"></use></mask><mask id="SvgjsMask1000" fill="#fff"><use fill="#fff" fill-rule="evenodd" xlink:href="#b"></use></mask></defs><g fill="none" fill-rule="evenodd" transform="translate(0 3)"><g transform="translate(4 10)"><use fill="#d8d8d8" xlink:href="#a"></use><g fill="#ffa0a0" mask="url(#c)"><path d="m0 0h24v24h-24z" transform="translate(-4 -13)"></path></g></g><use fill="#000" fill-rule="nonzero" xlink:href="#b"></use><g fill="#7600ff" mask="url(#d)"><path d="m0 0h24v24h-24z" transform="translate(0 -3)"></path></g></g></svg><style>@media (prefers-color-scheme: light) { :root { filter: none; } }
@media (prefers-color-scheme: dark) { :root { filter: none; } }
</style></svg>